<?xml version="1.0" standalone="no"?>
<!DOCTYPE svg PUBLIC "-//W3C//DTD SVG 20010904//EN"
 "http://www.w3.org/TR/2001/REC-SVG-20010904/DTD/svg10.dtd">
<svg version="1.0" xmlns="http://www.w3.org/2000/svg"
 width="1088.000000pt" height="1088.000000pt" viewBox="0 0 1088.000000 1088.000000"
 preserveAspectRatio="xMidYMid meet">
<metadata>
Created by potrace 1.14, written by Peter Selinger 2001-2017
</metadata>
<g transform="translate(0.000000,1088.000000) scale(0.100000,-0.100000)"
fill="#000000" stroke="none">
<path d="M18 9250 c9 -16 20 -30 25 -30 4 0 7 -6 7 -14 0 -8 3 -16 8 -18 4 -1
23 -28 42 -58 19 -30 37 -57 40 -60 5 -5 32 -44 57 -85 7 -11 16 -28 19 -37 3
-10 10 -18 14 -18 5 0 21 -21 36 -47 15 -27 30 -50 33 -53 3 -3 18 -23 32 -45
65 -101 104 -160 109 -165 3 -3 29 -41 57 -85 29 -44 57 -85 63 -92 5 -7 15
-24 22 -38 6 -14 15 -25 20 -25 4 0 8 -5 8 -10 0 -10 37 -67 51 -80 3 -3 16
-23 29 -45 13 -22 30 -46 37 -53 7 -7 13 -17 13 -22 0 -5 6 -15 13 -22 12 -13
68 -94 77 -113 3 -5 19 -30 35 -54 17 -24 35 -51 40 -60 6 -9 12 -18 15 -21 3
-3 21 -30 41 -60 87 -133 114 -175 119 -180 12 -12 70 -101 70 -108 0 -4 12
-20 26 -37 14 -16 33 -43 41 -60 9 -16 33 -53 55 -82 21 -29 38 -57 38 -63 0
-5 5 -10 10 -10 6 0 10 -5 10 -10 0 -6 18 -35 40 -64 22 -29 40 -56 40 -59 0
-8 59 -95 78 -115 6 -7 12 -20 12 -28 0 -8 4 -14 9 -14 5 0 22 -21 37 -47 15
-27 30 -50 33 -53 9 -8 51 -69 51 -74 0 -3 18 -31 40 -63 57 -82 56 -80 110
-163 27 -41 54 -80 60 -87 5 -7 15 -24 22 -38 6 -14 15 -25 20 -25 4 0 8 -4 8
-10 0 -11 62 -103 73 -108 4 -2 7 -10 7 -17 0 -7 3 -15 8 -17 4 -1 23 -28 42
-58 19 -30 37 -57 40 -60 12 -12 50 -70 50 -77 0 -5 13 -24 28 -43 16 -19 39
-53 52 -75 13 -22 29 -45 35 -51 5 -6 19 -27 30 -47 11 -20 23 -37 27 -37 5 0
8 -6 8 -14 0 -8 3 -16 8 -18 4 -1 23 -28 42 -58 19 -30 37 -57 40 -60 3 -3 17
-23 30 -45 13 -22 30 -46 37 -53 7 -7 13 -20 13 -28 0 -8 4 -14 9 -14 5 0 27
-30 49 -67 l41 -67 -34 -48 c-19 -26 -35 -50 -35 -53 0 -3 -18 -30 -40 -60
-22 -30 -38 -55 -35 -55 3 0 1 -6 -5 -12 -38 -46 -50 -62 -50 -69 0 -4 -6 -14
-13 -21 -12 -13 -87 -124 -97 -143 -7 -14 -44 -69 -50 -75 -3 -3 -39 -57 -80
-120 -41 -63 -77 -117 -80 -120 -4 -3 -17 -23 -30 -45 -13 -22 -26 -42 -30
-45 -6 -6 -62 -90 -70 -105 -7 -13 -83 -129 -90 -135 -10 -10 -70 -101 -70
-106 0 -3 -18 -29 -40 -59 -22 -30 -40 -56 -40 -59 0 -4 -88 -137 -107 -161
-4 -5 -42 -62 -83 -125 -41 -63 -77 -117 -80 -120 -4 -3 -17 -23 -30 -45 -13
-22 -26 -42 -30 -45 -3 -3 -30 -43 -60 -90 -30 -47 -57 -87 -60 -90 -4 -3 -17
-23 -30 -45 -13 -22 -27 -42 -30 -45 -3 -3 -25 -36 -50 -75 -25 -38 -47 -72
-50 -75 -9 -9 -84 -125 -82 -128 2 -1 -7 -12 -18 -24 -11 -12 -20 -25 -20 -29
0 -4 -6 -14 -12 -21 -7 -7 -47 -65 -88 -128 -41 -63 -77 -117 -80 -120 -4 -3
-17 -23 -30 -45 -13 -22 -28 -44 -33 -50 -15 -19 -127 -187 -127 -191 0 -3
-18 -29 -40 -59 -22 -30 -40 -58 -40 -62 0 -4 -11 -21 -25 -37 -14 -16 -25
-33 -25 -37 0 -4 -6 -14 -12 -21 -15 -15 -91 -128 -97 -143 -2 -5 -21 -33 -43
-62 -21 -29 -38 -55 -38 -58 0 -3 -18 -30 -40 -60 -22 -30 -40 -57 -40 -60 0
-3 -12 -23 -28 -44 -15 -21 -33 -47 -39 -57 -7 -11 -31 -45 -53 -77 -22 -32
-40 -62 -40 -67 0 -6 355 -10 955 -10 l955 0 17 28 c10 15 20 29 23 32 3 3 43
64 90 135 47 72 87 132 90 135 6 6 83 122 90 135 7 14 44 69 50 75 3 3 39 57
80 120 41 63 77 117 80 120 4 3 17 23 30 45 13 22 26 42 30 45 3 3 30 43 60
90 30 47 57 87 60 90 4 3 17 23 30 45 13 22 26 42 30 45 3 3 39 57 80 120 41
63 81 121 88 128 6 7 12 17 12 21 0 4 8 16 18 27 10 10 18 21 18 24 1 7 77
123 92 138 6 7 12 17 12 21 0 4 11 21 25 37 14 16 25 33 25 37 0 4 18 32 40
62 22 30 40 56 40 59 0 4 88 137 107 161 4 6 46 69 93 140 47 72 87 132 90
135 6 6 83 122 90 135 7 14 44 69 50 75 3 3 39 57 80 120 41 63 77 117 80 120
4 3 17 23 30 45 13 22 27 42 30 45 3 3 16 22 29 43 13 21 29 44 37 52 8 8 14
16 13 17 -2 3 71 118 81 128 10 10 70 101 70 106 0 3 18 29 40 59 22 30 40 56
40 59 0 4 89 138 107 161 5 6 28 42 53 80 25 39 49 75 55 82 5 7 16 19 23 28
7 8 10 15 7 15 -3 0 13 25 35 55 22 30 40 57 40 60 0 3 15 26 34 52 34 47 34
48 17 78 -36 65 -63 105 -72 105 -5 0 -9 6 -9 14 0 8 -6 21 -13 28 -7 7 -24
31 -37 53 -13 22 -27 42 -30 45 -3 3 -21 30 -40 60 -19 30 -38 57 -42 58 -5 2
-8 10 -8 18 0 8 -3 14 -8 14 -4 0 -16 17 -27 37 -11 20 -25 41 -30 47 -6 6
-22 29 -35 51 -13 22 -26 42 -29 45 -11 9 -51 69 -51 75 0 6 -40 65 -50 75 -3
3 -21 30 -40 60 -19 30 -38 57 -42 58 -5 2 -8 10 -8 18 0 8 -3 14 -8 14 -4 0
-16 17 -27 37 -11 20 -25 41 -30 47 -6 6 -22 29 -35 51 -13 22 -30 46 -37 53
-7 7 -13 17 -13 22 0 5 -6 15 -13 22 -7 7 -24 31 -37 53 -13 22 -27 42 -30 45
-3 3 -21 30 -40 60 -19 30 -38 57 -42 58 -5 2 -8 10 -8 17 0 7 -3 15 -7 17 -7
3 -55 71 -78 111 -5 9 -63 97 -129 195 -65 97 -130 195 -145 217 -14 22 -28
42 -31 45 -4 3 -17 23 -30 45 -13 22 -30 46 -37 53 -7 7 -13 17 -13 22 0 5 -6
15 -13 22 -7 7 -24 31 -37 53 -13 22 -27 42 -30 45 -3 3 -21 30 -40 60 -19 30
-38 57 -42 58 -5 2 -8 10 -8 18 0 8 -3 14 -8 14 -4 0 -16 17 -27 37 -11 20
-25 41 -30 47 -6 6 -22 29 -35 51 -13 22 -27 42 -30 45 -4 3 -19 25 -34 50
-15 25 -35 56 -45 70 -10 14 -36 52 -57 85 -21 33 -42 62 -46 63 -5 2 -8 10
-8 17 0 7 -3 15 -7 17 -11 5 -73 97 -73 108 0 6 -4 10 -9 10 -5 0 -13 9 -16
21 -4 12 -14 29 -23 39 -10 10 -39 53 -67 96 -27 44 -52 81 -55 84 -5 5 -43
63 -109 165 -14 22 -28 42 -31 45 -4 3 -17 23 -30 45 -13 22 -28 45 -33 50
-23 29 -167 249 -167 256 0 5 -4 9 -9 9 -5 0 -14 14 -21 30 -7 17 -16 30 -21
30 -5 0 -9 7 -9 15 0 13 -114 15 -965 15 l-964 0 17 -30z"/>
<path d="M2582 9248 c14 -18 32 -46 41 -63 8 -16 27 -43 41 -60 14 -16 26 -33
26 -37 0 -7 58 -96 70 -108 7 -6 83 -122 90 -135 12 -23 66 -100 73 -103 4 -2
7 -10 7 -17 0 -7 3 -15 8 -17 4 -1 23 -28 42 -58 19 -30 37 -57 40 -60 3 -3
17 -23 30 -45 13 -22 26 -42 29 -45 6 -5 10 -11 59 -88 15 -24 35 -53 45 -64
9 -12 17 -25 17 -29 0 -4 6 -14 13 -21 7 -7 24 -31 37 -53 13 -22 30 -46 37
-53 7 -7 13 -17 13 -22 0 -5 6 -15 13 -22 7 -7 24 -31 37 -53 13 -22 27 -42
30 -45 3 -3 21 -30 40 -60 19 -30 38 -56 42 -58 5 -2 8 -10 8 -17 0 -7 3 -15
8 -17 6 -3 60 -80 72 -103 7 -14 84 -129 90 -135 3 -3 29 -41 57 -85 29 -44
57 -85 63 -92 5 -7 15 -24 22 -38 6 -14 15 -25 20 -25 4 0 8 -5 8 -11 0 -6 14
-28 30 -49 17 -21 30 -43 30 -49 0 -6 5 -11 10 -11 6 0 10 -5 10 -10 0 -6 18
-35 40 -64 22 -29 40 -56 40 -59 0 -6 59 -96 70 -107 5 -5 13 -17 58 -89 15
-24 32 -48 37 -55 6 -6 22 -29 36 -51 67 -103 104 -160 109 -165 3 -3 29 -41
57 -85 29 -44 57 -85 63 -92 5 -7 15 -24 22 -38 6 -14 15 -25 20 -25 4 0 8 -4
8 -10 0 -11 62 -103 73 -108 4 -2 7 -10 7 -17 0 -7 4 -15 8 -17 4 -1 19 -21
32 -43 13 -22 28 -44 33 -50 4 -5 18 -25 30 -44 12 -19 33 -51 47 -71 14 -20
39 -58 55 -84 17 -26 37 -56 46 -66 8 -10 24 -35 34 -54 11 -20 23 -36 27 -36
5 0 8 -6 8 -14 0 -8 3 -16 8 -18 4 -1 23 -28 42 -58 19 -30 37 -57 40 -60 3
-3 17 -23 30 -45 13 -22 30 -46 36 -53 7 -6 16 -21 19 -32 3 -11 10 -20 14
-20 5 0 14 -13 21 -30 7 -16 16 -30 19 -30 4 0 14 -15 23 -33 16 -33 15 -34
-18 -80 -19 -26 -34 -49 -34 -52 0 -3 -18 -30 -40 -60 -22 -30 -40 -58 -40
-62 0 -4 -11 -21 -25 -37 -14 -16 -25 -33 -25 -37 0 -4 -6 -14 -12 -21 -13
-13 -88 -124 -98 -143 -7 -14 -44 -69 -50 -75 -3 -3 -39 -57 -80 -120 -41 -63
-77 -117 -80 -120 -4 -3 -17 -23 -30 -45 -13 -22 -26 -42 -30 -45 -6 -6 -62
-90 -70 -105 -7 -13 -83 -129 -90 -135 -10 -10 -70 -101 -70 -106 0 -3 -18
-29 -40 -59 -22 -30 -40 -56 -40 -59 0 -4 -88 -137 -107 -161 -4 -5 -42 -62
-83 -125 -41 -63 -77 -117 -80 -120 -4 -3 -17 -23 -30 -45 -13 -22 -26 -42
-30 -45 -3 -3 -30 -43 -60 -90 -30 -47 -57 -87 -60 -90 -4 -3 -17 -23 -30 -45
-13 -22 -26 -42 -30 -45 -3 -3 -34 -50 -70 -105 -36 -55 -67 -102 -70 -105 -3
-3 -30 -43 -60 -90 -30 -47 -59 -89 -63 -95 -22 -28 -187 -279 -187 -285 0 -3
-8 -15 -17 -26 -23 -26 -63 -82 -63 -88 0 -3 -18 -31 -40 -63 -22 -32 -46 -66
-53 -77 -6 -10 -24 -36 -39 -57 -16 -21 -28 -41 -28 -44 0 -3 -18 -30 -40 -60
-22 -30 -40 -56 -40 -59 0 -4 -88 -137 -107 -161 -4 -5 -42 -62 -83 -125 -41
-63 -77 -117 -80 -120 -4 -3 -17 -23 -30 -45 -13 -22 -26 -42 -30 -45 -3 -3
-18 -24 -33 -47 l-27 -43 965 0 c607 0 965 4 965 10 0 8 61 102 88 135 4 6 18
27 31 48 13 21 30 44 38 52 8 8 12 15 8 15 -3 0 13 25 35 55 22 30 40 57 40
60 0 7 72 109 83 116 5 3 8 9 8 13 -1 7 68 115 87 134 6 7 12 17 12 21 0 4 11
21 25 37 14 16 25 33 25 37 0 4 18 32 40 62 22 30 40 56 40 59 0 3 31 50 70
106 38 56 70 103 70 106 0 3 18 29 40 59 22 30 40 58 40 62 0 4 11 21 25 37
14 16 25 33 25 37 0 4 6 14 13 21 14 15 90 128 96 143 2 6 21 33 43 62 21 29
38 55 38 58 0 3 18 30 40 60 22 30 40 57 40 60 0 3 12 23 27 44 16 21 34 47
40 57 7 11 31 45 53 77 22 32 40 60 40 63 0 3 18 29 40 59 22 30 40 57 40 60
0 3 18 30 40 60 22 30 40 58 40 63 0 4 8 17 18 28 9 10 37 51 62 89 25 39 48
75 53 80 4 6 14 19 21 29 16 24 27 15 66 -49 13 -22 26 -42 29 -45 11 -9 51
-69 51 -75 0 -6 40 -65 50 -75 3 -3 21 -30 40 -60 19 -30 38 -56 42 -58 5 -2
8 -10 8 -18 0 -8 3 -14 8 -14 4 0 16 -17 27 -37 11 -20 25 -41 30 -47 6 -6 22
-29 35 -51 13 -22 30 -46 37 -53 7 -7 13 -17 13 -22 0 -5 6 -15 13 -22 12 -13
68 -94 77 -113 3 -5 19 -30 35 -54 17 -24 35 -51 40 -60 6 -9 12 -18 15 -21
10 -10 70 -101 70 -106 0 -5 40 -64 50 -74 11 -11 50 -70 50 -75 0 -6 40 -65
50 -75 3 -3 21 -30 40 -60 19 -30 38 -57 42 -58 5 -2 8 -10 8 -17 0 -7 3 -15
8 -17 6 -3 68 -93 117 -173 10 -16 27 -38 37 -49 10 -11 18 -23 18 -28 0 -4
12 -26 28 -47 15 -21 33 -47 39 -57 7 -11 31 -45 53 -77 22 -32 40 -60 40 -64
0 -3 14 -22 30 -43 17 -21 30 -41 30 -44 0 -6 38 -64 50 -76 11 -11 50 -70 50
-76 0 -3 8 -16 18 -29 26 -34 73 -105 114 -170 7 -11 15 -22 18 -25 3 -3 13
-17 23 -32 l17 -28 960 0 960 0 -17 28 c-10 15 -20 29 -23 32 -3 3 -9 12 -15
21 -5 10 -25 38 -42 63 -18 26 -33 50 -33 53 0 3 -13 22 -30 43 -16 21 -30 41
-30 46 0 4 -18 31 -40 60 -22 29 -40 58 -40 64 0 5 -4 10 -10 10 -5 0 -10 5
-10 11 0 6 -13 28 -30 49 -16 21 -30 43 -30 49 0 6 -4 11 -9 11 -5 0 -14 13
-21 29 -6 16 -19 37 -28 48 -14 15 -105 151 -221 328 -14 22 -28 42 -31 45 -4
3 -17 23 -30 45 -13 22 -30 46 -37 53 -7 7 -13 17 -13 22 0 5 -6 15 -13 22 -7
7 -24 31 -37 53 -13 22 -27 42 -30 45 -3 3 -21 30 -40 60 -19 30 -38 57 -42
58 -5 2 -8 10 -8 17 0 7 -3 15 -7 17 -7 3 -61 80 -73 103 -7 13 -83 129 -90
135 -11 11 -70 101 -70 107 0 3 -18 30 -40 59 -22 29 -40 58 -40 64 0 5 -4 10
-10 10 -5 0 -10 5 -10 11 0 6 -14 28 -30 49 -16 21 -30 43 -30 49 0 6 -4 11
-9 11 -5 0 -13 9 -16 21 -4 12 -14 29 -23 39 -10 10 -39 53 -67 96 -27 44 -53
81 -57 82 -5 2 -8 8 -8 14 0 6 -13 27 -30 48 -16 21 -30 43 -30 49 0 6 -4 11
-10 11 -5 0 -10 5 -10 11 0 6 -13 28 -30 49 -16 21 -30 43 -30 49 0 6 -4 11
-9 11 -5 0 -14 13 -21 29 -6 16 -19 37 -28 48 -16 17 -191 276 -202 298 -7 13
-63 99 -70 105 -3 3 -9 12 -15 21 -5 10 -25 38 -42 63 -18 26 -33 50 -33 53 0
3 -13 22 -30 43 -16 21 -30 42 -30 47 0 5 -13 24 -30 43 -16 19 -29 41 -30 48
0 6 -4 12 -9 12 -5 0 -15 12 -22 28 -14 26 -69 112 -79 122 -3 3 -9 12 -15 21
-5 9 -23 36 -40 60 -16 24 -32 49 -35 54 -7 13 -63 99 -70 105 -5 5 -13 17
-58 89 -15 24 -32 48 -37 55 -11 12 -47 65 -55 81 -6 11 -184 276 -230 343
-17 23 -30 45 -30 48 0 4 -13 23 -30 44 -16 21 -30 40 -30 43 0 4 -18 32 -40
64 -22 32 -46 66 -53 77 -6 10 -24 36 -39 57 -16 21 -28 42 -28 46 0 3 -18 30
-40 59 -22 29 -40 58 -40 64 0 5 -4 10 -10 10 -5 0 -10 5 -10 11 0 6 -13 28
-30 49 -16 21 -30 43 -30 49 0 6 -4 11 -9 11 -5 0 -14 12 -20 28 -6 15 -25 43
-41 62 -17 19 -30 38 -30 42 0 7 -58 96 -70 108 -5 5 -46 68 -109 165 -14 22
-28 42 -31 45 -4 3 -17 23 -30 45 -13 22 -30 46 -37 53 -7 7 -13 17 -13 22 0
5 -6 15 -12 22 -19 20 -78 107 -78 115 0 3 -18 30 -40 59 -22 29 -40 58 -40
64 0 5 -4 10 -10 10 -5 0 -10 5 -10 11 0 6 -13 28 -30 49 -16 21 -30 43 -30
49 0 6 -4 11 -8 11 -5 0 -14 11 -20 25 -7 14 -17 31 -22 38 -6 7 -34 48 -63
92 -28 44 -55 82 -59 83 -5 2 -8 8 -8 14 0 6 -13 27 -30 48 -16 21 -30 43 -30
49 0 6 -4 11 -10 11 -5 0 -10 5 -10 11 0 6 -13 28 -30 49 -16 21 -30 43 -30
49 0 6 -4 11 -9 11 -5 0 -14 13 -21 29 -6 16 -19 37 -28 48 -14 15 -105 151
-221 328 -14 22 -28 42 -31 45 -4 3 -17 23 -30 45 -13 22 -30 46 -37 53 -7 7
-13 17 -13 22 0 5 -6 15 -13 22 -7 7 -24 31 -37 53 -13 22 -27 42 -30 45 -3 3
-21 30 -40 60 -19 30 -38 57 -42 58 -5 2 -8 10 -8 17 0 7 -3 15 -7 17 -7 3
-61 79 -73 103 -3 6 -32 50 -65 98 -33 49 -69 103 -80 120 -10 18 -24 37 -30
43 -5 6 -19 27 -30 47 -11 20 -23 37 -27 37 -5 0 -8 7 -8 15 0 8 -3 15 -7 15
-5 0 -16 14 -25 30 l-17 30 -962 0 -961 0 24 -32z"/>
<path d="M6625 7039 c-4 -5 7 -28 23 -52 16 -23 46 -69 68 -102 21 -33 41 -62
44 -65 3 -3 10 -12 15 -21 6 -9 24 -36 40 -60 17 -24 32 -48 35 -54 12 -23 66
-100 73 -103 4 -2 7 -9 7 -16 0 -7 9 -21 20 -31 11 -10 20 -24 20 -32 0 -7 4
-13 8 -13 5 0 15 -12 23 -27 7 -16 26 -44 41 -64 15 -20 28 -39 28 -42 0 -3
36 -58 80 -122 44 -64 80 -119 80 -122 0 -4 18 -30 40 -59 22 -29 40 -56 40
-59 0 -3 17 -29 38 -58 20 -29 44 -64 51 -79 8 -16 18 -28 23 -28 4 0 8 -6 8
-13 0 -19 46 -60 59 -53 5 4 12 2 16 -3 3 -7 15 -7 30 -1 15 6 27 6 30 0 3 -5
15 -6 29 0 12 4 29 4 36 0 8 -5 21 -5 30 0 9 5 22 5 30 0 8 -5 21 -5 30 0 9 5
22 5 30 0 8 -5 21 -5 30 0 9 5 22 5 30 0 8 -5 21 -5 30 0 9 5 22 5 30 0 8 -5
21 -5 30 0 9 5 22 5 30 0 8 -5 21 -5 30 0 9 5 22 5 30 0 8 -5 21 -5 30 0 9 5
22 5 30 0 8 -5 21 -5 30 0 9 5 22 5 30 0 8 -5 21 -5 30 0 9 5 22 5 30 0 8 -5
21 -5 30 0 9 5 22 5 30 0 8 -5 21 -5 30 0 9 5 22 5 30 0 8 -5 21 -5 30 0 9 5
22 5 30 0 8 -5 21 -5 30 0 9 5 22 5 30 0 8 -5 21 -5 30 0 9 5 22 5 30 0 8 -5
21 -5 30 0 9 5 22 5 30 0 8 -5 21 -5 30 0 9 5 22 5 30 0 8 -5 21 -5 30 0 9 5
22 5 30 0 8 -5 21 -5 30 0 9 5 22 5 30 0 8 -5 21 -5 30 0 9 5 22 5 30 0 8 -5
21 -5 30 0 9 5 22 5 30 0 8 -5 21 -5 30 0 9 5 22 5 30 0 8 -5 21 -5 30 0 9 5
22 5 30 0 8 -5 21 -5 30 0 9 5 22 5 30 0 8 -5 21 -5 30 0 9 5 22 5 30 0 8 -5
21 -5 30 0 9 5 22 5 30 0 8 -5 21 -5 30 0 9 5 22 5 30 0 8 -5 21 -5 30 0 9 5
22 5 30 0 8 -5 21 -5 30 0 9 5 22 5 30 0 8 -5 21 -5 30 0 9 5 22 5 30 0 8 -5
21 -5 30 0 9 5 22 5 30 0 8 -5 21 -5 30 0 9 5 22 5 30 0 8 -5 21 -5 30 0 9 5
22 5 30 0 8 -5 21 -5 30 0 9 5 22 5 30 0 8 -5 21 -5 30 0 9 5 22 5 30 0 8 -5
21 -5 30 0 9 5 22 5 30 0 8 -5 21 -5 30 0 9 5 22 5 30 0 8 -5 21 -5 30 0 9 5
22 5 30 0 8 -5 21 -5 30 0 9 5 22 5 30 0 8 -5 21 -5 30 0 9 5 22 5 30 0 8 -5
21 -5 30 0 9 5 22 5 30 0 8 -5 21 -5 30 0 9 5 22 5 30 0 8 -5 21 -5 30 0 9 5
22 5 30 0 8 -5 21 -5 30 0 9 5 22 5 30 0 8 -5 21 -5 30 0 9 5 22 5 30 0 8 -5
21 -5 30 0 9 5 22 5 30 0 8 -5 21 -5 30 0 9 5 22 5 30 0 8 -5 21 -5 30 0 9 5
22 5 30 0 8 -5 21 -5 30 0 9 5 22 5 30 0 8 -5 21 -5 30 0 9 5 22 5 30 0 8 -5
21 -5 30 0 9 5 22 5 30 0 8 -5 21 -5 30 0 9 5 22 5 29 0 8 -4 27 -4 42 0 16 5
29 5 29 0 0 -5 13 -5 30 0 17 5 30 5 30 1 0 -4 14 -6 30 -3 l30 4 0 640 0 640
-30 -4 c-16 -3 -30 -1 -30 3 0 4 -13 4 -30 -1 -17 -5 -30 -5 -30 0 0 5 -13 5
-29 0 -15 -4 -34 -4 -42 0 -7 5 -20 5 -29 0 -9 -5 -22 -5 -30 0 -8 5 -21 5
-30 0 -9 -5 -22 -5 -30 0 -8 5 -21 5 -30 0 -9 -5 -22 -5 -30 0 -8 5 -21 5 -30
0 -9 -5 -22 -5 -30 0 -8 5 -21 5 -30 0 -9 -5 -22 -5 -30 0 -8 5 -21 5 -30 0
-9 -5 -22 -5 -30 0 -8 5 -21 5 -30 0 -9 -5 -22 -5 -30 0 -8 5 -21 5 -30 0 -9
-5 -22 -5 -30 0 -8 5 -21 5 -30 0 -9 -5 -22 -5 -30 0 -8 5 -21 5 -30 0 -9 -5
-22 -5 -30 0 -8 5 -21 5 -30 0 -9 -5 -22 -5 -30 0 -8 5 -21 5 -30 0 -9 -5 -22
-5 -30 0 -8 5 -21 5 -30 0 -9 -5 -22 -5 -30 0 -8 5 -21 5 -30 0 -9 -5 -22 -5
-30 0 -8 5 -21 5 -30 0 -9 -5 -22 -5 -30 0 -8 5 -21 5 -30 0 -9 -5 -22 -5 -30
0 -8 5 -21 5 -30 0 -9 -5 -22 -5 -30 0 -8 5 -21 5 -30 0 -9 -5 -22 -5 -30 0
-8 5 -21 5 -30 0 -9 -5 -22 -5 -30 0 -8 5 -21 5 -30 0 -9 -5 -22 -5 -30 0 -8
5 -21 5 -30 0 -9 -5 -22 -5 -30 0 -8 5 -21 5 -30 0 -9 -5 -22 -5 -30 0 -8 5
-21 5 -30 0 -9 -5 -22 -5 -30 0 -8 5 -21 5 -30 0 -9 -5 -22 -5 -30 0 -8 5 -21
5 -30 0 -9 -5 -22 -5 -30 0 -8 5 -21 5 -30 0 -9 -5 -22 -5 -30 0 -8 5 -21 5
-30 0 -9 -5 -22 -5 -30 0 -8 5 -21 5 -30 0 -9 -5 -21 -5 -28 -1 -12 7 -87 5
-101 -4 -5 -3 -12 -1 -16 4 -3 7 -15 7 -30 1 -13 -5 -27 -5 -30 -1 -3 5 -21 5
-40 1 -19 -4 -35 -4 -35 0 0 5 -13 5 -30 0 -17 -5 -32 -5 -35 0 -3 5 -16 5
-30 0 -15 -6 -27 -6 -30 0 -3 6 -15 6 -30 0 -15 -6 -27 -6 -30 0 -3 6 -15 6
-30 0 -13 -5 -27 -5 -30 -1 -3 5 -21 5 -40 1 -19 -4 -35 -4 -35 0 0 5 -13 5
-30 0 -17 -5 -32 -5 -35 0 -3 5 -16 5 -30 0 -15 -6 -27 -6 -30 0 -3 6 -15 6
-30 0 -15 -6 -27 -6 -30 0 -3 6 -15 6 -30 0 -13 -5 -27 -5 -30 -1 -3 5 -21 5
-40 1 -19 -4 -35 -4 -35 0 0 5 -13 5 -30 0 -17 -5 -32 -5 -35 0 -3 5 -16 5
-30 0 -15 -6 -27 -6 -30 0 -3 6 -15 6 -30 0 -15 -6 -27 -6 -30 0 -3 6 -15 6
-30 0 -13 -5 -27 -5 -30 -1 -3 5 -21 5 -40 1 -19 -4 -35 -4 -35 0 0 5 -13 5
-30 0 -17 -5 -32 -5 -35 0 -3 5 -16 6 -28 2 -25 -8 -69 -8 -83 1 -6 3 -16 2
-24 -3 -8 -5 -21 -5 -30 0 -9 5 -22 5 -29 0 -8 -4 -27 -4 -42 0 -16 5 -29 5
-29 0 0 -5 -13 -5 -30 0 -17 5 -30 5 -30 0 0 -5 -13 -5 -30 0 -17 5 -30 5 -30
0 0 -5 -13 -5 -30 0 -17 5 -30 5 -30 0 0 -5 -13 -5 -30 0 -17 5 -30 5 -30 0 0
-5 -13 -5 -30 0 -17 5 -30 5 -30 0 0 -5 -13 -5 -30 0 -17 5 -30 5 -30 0 0 -5
-13 -5 -30 0 -17 5 -30 5 -30 0 0 -5 -13 -5 -30 0 -17 5 -30 5 -30 0 0 -5 -13
-5 -30 0 -17 5 -30 5 -30 0 0 -5 -13 -5 -30 0 -17 5 -30 5 -30 0 0 -5 -13 -5
-30 0 -17 5 -30 5 -30 0 0 -5 -13 -5 -30 0 -17 5 -30 5 -30 0 0 -5 -13 -5 -30
0 -17 5 -30 5 -30 0 0 -5 -13 -5 -30 0 -18 5 -32 5 -35 -1z"/>
<path d="M7899 5119 c-8 -5 -9 -9 -3 -9 6 0 16 -10 23 -22 28 -54 93 -152 104
-156 4 -2 7 -9 7 -16 0 -7 8 -21 18 -32 11 -11 21 -24 23 -30 8 -20 184 -279
191 -282 4 -2 8 -8 8 -14 0 -6 16 -33 35 -59 19 -27 35 -53 35 -58 0 -5 3 -11
8 -13 4 -1 36 -48 72 -102 36 -55 70 -104 76 -110 6 -6 11 -14 12 -19 1 -4 55
-86 119 -183 92 -139 120 -174 135 -171 10 3 20 1 23 -4 3 -4 17 -4 30 1 15 6
25 6 25 0 0 -5 12 -5 30 0 17 5 30 6 30 2 0 -8 83 -7 105 2 8 3 17 1 20 -4 3
-6 15 -6 30 0 13 5 27 5 30 1 3 -5 21 -5 40 -1 19 4 35 4 35 0 0 -5 13 -5 30
0 17 5 32 5 35 0 3 -5 16 -5 30 0 15 6 27 6 30 0 3 -6 15 -6 30 0 15 6 27 6
30 0 3 -6 15 -6 30 0 13 5 27 5 30 1 3 -5 21 -5 40 -1 19 4 35 4 35 0 0 -5 13
-5 30 0 18 5 32 5 36 -1 3 -5 10 -7 15 -4 13 9 99 11 99 3 0 -4 14 -3 30 2 17
5 30 5 30 0 0 -5 13 -5 29 0 15 4 34 4 42 0 7 -5 20 -5 29 0 9 5 22 5 30 0 8
-5 21 -5 30 0 9 5 22 5 30 0 8 -5 21 -5 30 0 9 5 22 5 30 0 8 -5 21 -5 30 0 9
5 22 5 30 0 8 -5 21 -5 30 0 9 5 22 5 30 0 8 -5 21 -5 30 0 9 5 22 5 30 0 8
-5 21 -5 30 0 9 5 22 5 30 0 8 -5 21 -5 30 0 9 5 22 5 30 0 8 -5 21 -5 30 0 9
5 22 5 30 0 8 -5 21 -5 30 0 9 5 22 5 30 0 8 -5 21 -5 30 0 9 5 22 5 30 0 8
-5 21 -5 30 0 9 5 22 5 30 0 8 -5 21 -5 30 0 9 5 22 5 30 0 8 -5 21 -5 30 0 9
5 22 5 30 0 8 -5 21 -5 30 0 9 5 22 5 29 0 8 -4 27 -4 42 0 16 5 29 5 29 0 0
-5 13 -5 30 0 17 5 30 5 30 1 0 -4 14 -6 30 -3 l30 4 0 640 0 640 -30 -4 c-16
-3 -30 -1 -30 3 0 4 -13 4 -30 -1 -17 -5 -30 -5 -30 0 0 5 -13 5 -29 0 -15 -4
-34 -4 -42 0 -7 5 -20 5 -29 0 -9 -5 -22 -5 -30 0 -8 5 -21 5 -30 0 -9 -5 -22
-5 -30 0 -8 5 -21 5 -30 0 -9 -5 -22 -5 -30 0 -8 5 -21 5 -30 0 -9 -5 -22 -5
-30 0 -8 5 -21 5 -30 0 -9 -5 -22 -5 -30 0 -8 5 -21 5 -30 0 -9 -5 -22 -5 -30
0 -8 5 -21 5 -30 0 -9 -5 -22 -5 -30 0 -8 5 -21 5 -30 0 -9 -5 -22 -5 -30 0
-8 5 -21 5 -30 0 -9 -5 -22 -5 -30 0 -8 5 -21 5 -30 0 -9 -5 -22 -5 -30 0 -8
5 -21 5 -30 0 -9 -5 -22 -5 -30 0 -8 5 -21 5 -30 0 -9 -5 -22 -5 -30 0 -8 5
-21 5 -30 0 -9 -5 -22 -5 -30 0 -8 5 -21 5 -30 0 -9 -5 -22 -5 -30 0 -8 5 -21
5 -30 0 -9 -5 -22 -5 -29 0 -8 4 -27 4 -42 0 -16 -5 -29 -5 -29 0 0 5 -13 5
-30 0 -16 -5 -30 -6 -30 -2 0 8 -83 7 -105 -2 -8 -3 -17 -1 -20 4 -3 6 -15 6
-30 0 -13 -5 -27 -5 -30 -1 -3 5 -21 5 -40 1 -19 -4 -35 -4 -35 0 0 5 -13 5
-30 0 -17 -5 -32 -5 -35 0 -3 5 -16 5 -30 0 -15 -6 -27 -6 -30 0 -3 6 -15 6
-30 0 -15 -6 -27 -6 -30 0 -3 6 -15 6 -30 0 -13 -5 -27 -5 -30 -1 -3 5 -21 5
-40 1 -19 -4 -35 -4 -35 0 0 5 -13 5 -30 0 -17 -5 -32 -5 -35 0 -3 5 -16 6
-28 2 -25 -8 -69 -8 -83 1 -6 3 -16 2 -24 -3 -8 -5 -21 -5 -30 0 -9 5 -22 5
-29 0 -8 -4 -27 -4 -42 0 -16 5 -29 5 -29 0 0 -5 -13 -5 -30 0 -17 5 -30 5
-30 0 0 -5 -13 -5 -30 0 -17 5 -30 5 -30 0 0 -5 -13 -5 -30 0 -17 5 -30 5 -30
0 0 -5 -13 -5 -30 0 -17 5 -30 5 -30 0 0 -5 -13 -5 -30 0 -17 5 -32 5 -35 0
-3 -5 -15 -6 -28 -1 -12 5 -32 5 -44 0 -12 -4 -25 -4 -28 1 -3 5 -18 5 -35 0
-17 -5 -30 -5 -30 0 0 5 -13 5 -30 0 -17 -5 -30 -5 -30 0 0 5 -13 5 -30 0 -17
-5 -30 -5 -30 0 0 5 -13 5 -30 0 -17 -5 -30 -5 -30 0 0 5 -13 5 -30 0 -16 -5
-30 -6 -30 -2 0 4 -16 7 -35 7 -19 0 -35 -3 -35 -7 0 -4 -13 -3 -29 2 -15 4
-35 4 -42 -1z"/>
</g>
</svg>
