<?xml version="1.0" encoding="UTF-8" standalone="no"?>
<!DOCTYPE svg PUBLIC "-//W3C//DTD SVG 1.1//EN"
 "http://www.w3.org/Graphics/SVG/1.1/DTD/svg11.dtd">
<!-- Generated by graphviz version 12.2.1 (0)
 -->
<!-- Title: lexer_states Pages: 1 -->
<svg width="1004pt" height="228pt"
 viewBox="0.00 0.00 1004.20 227.80" xmlns="http://www.w3.org/2000/svg" xmlns:xlink="http://www.w3.org/1999/xlink">
<g id="graph0" class="graph" transform="scale(1 1) rotate(0) translate(4 223.8)">
<title>lexer_states</title>
<polygon fill="white" stroke="none" points="-4,4 -4,-223.8 1000.2,-223.8 1000.2,4 -4,4"/>
<g id="node1" class="node">
<title></title>
</g>
<!-- start -->
<g id="node2" class="node">
<title>start</title>
<ellipse fill="none" stroke="black" cx="127" cy="-129.4" rx="36" ry="36"/>
<text text-anchor="middle" x="127" y="-124.73" font-family="Times,serif" font-size="14.00">start</text>
</g>
<!-- &#45;&gt;start -->
<g id="edge1" class="edge">
<title>&#45;&gt;start</title>
<path fill="none" stroke="black" d="M53.75,-129.4C61.63,-129.4 70.57,-129.4 79.4,-129.4"/>
<polygon fill="black" stroke="black" points="79.33,-132.9 89.33,-129.4 79.33,-125.9 79.33,-132.9"/>
</g>
<!-- bol_section -->
<g id="node3" class="node">
<title>bol_section</title>
<ellipse fill="yellow" stroke="black" cx="250.4" cy="-129.4" rx="50.4" ry="50.4"/>
<text text-anchor="middle" x="250.4" y="-124.73" font-family="Times,serif" font-size="14.00">bol_section</text>
</g>
<!-- start&#45;&gt;bol_section -->
<g id="edge2" class="edge">
<title>start&#45;&gt;bol_section</title>
<path fill="none" stroke="black" d="M163.44,-129.4C171.32,-129.4 179.9,-129.4 188.48,-129.4"/>
<polygon fill="black" stroke="black" points="188.19,-132.9 198.19,-129.4 188.19,-125.9 188.19,-132.9"/>
</g>
<!-- in_section -->
<g id="node6" class="node">
<title>in_section</title>
<ellipse fill="yellow" stroke="black" cx="453.95" cy="-129.4" rx="50.4" ry="50.4"/>
<text text-anchor="middle" x="453.95" y="-124.73" font-family="Times,serif" font-size="14.00">in_section</text>
</g>
<!-- bol_section&#45;&gt;in_section -->
<g id="edge3" class="edge">
<title>bol_section&#45;&gt;in_section</title>
<path fill="none" stroke="black" d="M301.22,-129.4C328.7,-129.4 363.03,-129.4 392.09,-129.4"/>
<polygon fill="black" stroke="black" points="391.84,-132.9 401.84,-129.4 391.84,-125.9 391.84,-132.9"/>
<text text-anchor="middle" x="352.17" y="-133.35" font-family="Times,serif" font-size="14.00" fill="red">indent</text>
</g>
<!-- bol_field_layout -->
<g id="node4" class="node">
<title>bol_field_layout</title>
<ellipse fill="yellow" stroke="black" cx="945.8" cy="-169.4" rx="50.4" ry="50.4"/>
<text text-anchor="middle" x="945.8" y="-164.72" font-family="Times,serif" font-size="14.00">bol_field_layout</text>
</g>
<!-- in_field_layout -->
<g id="node7" class="node">
<title>in_field_layout</title>
<ellipse fill="none" stroke="black" cx="742.25" cy="-169.4" rx="50.4" ry="50.4"/>
<text text-anchor="middle" x="742.25" y="-164.72" font-family="Times,serif" font-size="14.00">in_field_layout</text>
</g>
<!-- bol_field_layout&#45;&gt;in_field_layout -->
<g id="edge4" class="edge">
<title>bol_field_layout&#45;&gt;in_field_layout</title>
<path fill="none" stroke="black" d="M897.29,-154.06C890.67,-152.44 883.91,-151.06 877.4,-150.15 848.02,-146.04 840.03,-146.04 810.65,-150.15 807.8,-150.55 804.91,-151.04 802,-151.6"/>
<polygon fill="black" stroke="black" points="801.26,-148.18 792.24,-153.74 802.76,-155.01 801.26,-148.18"/>
<text text-anchor="middle" x="844.02" y="-154.1" font-family="Times,serif" font-size="14.00" fill="red">indent</text>
</g>
<!-- bol_field_braces -->
<g id="node5" class="node">
<title>bol_field_braces</title>
<ellipse fill="yellow" stroke="black" cx="945.8" cy="-50.4" rx="50.4" ry="50.4"/>
<text text-anchor="middle" x="945.8" y="-45.73" font-family="Times,serif" font-size="14.00">bol_field_braces</text>
</g>
<!-- in_field_braces -->
<g id="node8" class="node">
<title>in_field_braces</title>
<ellipse fill="none" stroke="black" cx="742.25" cy="-50.4" rx="50.4" ry="50.4"/>
<text text-anchor="middle" x="742.25" y="-45.73" font-family="Times,serif" font-size="14.00">in_field_braces</text>
</g>
<!-- bol_field_braces&#45;&gt;in_field_braces -->
<g id="edge5" class="edge">
<title>bol_field_braces&#45;&gt;in_field_braces</title>
<path fill="none" stroke="black" d="M895.2,-50.4C867.76,-50.4 833.43,-50.4 804.35,-50.4"/>
<polygon fill="black" stroke="black" points="804.58,-46.9 794.58,-50.4 804.58,-53.9 804.58,-46.9"/>
<text text-anchor="middle" x="844.02" y="-54.35" font-family="Times,serif" font-size="14.00" fill="red">indent</text>
</g>
<!-- in_section&#45;&gt;bol_section -->
<g id="edge6" class="edge">
<title>in_section&#45;&gt;bol_section</title>
<path fill="none" stroke="black" d="M406.25,-112.67C399.39,-110.8 392.34,-109.2 385.55,-108.15 356.23,-103.64 348.12,-103.64 318.8,-108.15 315.62,-108.64 312.38,-109.25 309.13,-109.96"/>
<polygon fill="black" stroke="black" points="308.45,-106.52 299.57,-112.31 310.12,-113.32 308.45,-106.52"/>
<text text-anchor="middle" x="352.17" y="-112.1" font-family="Times,serif" font-size="14.00" fill="red">linebreak</text>
</g>
<!-- in_section&#45;&gt;in_field_layout -->
<g id="edge9" class="edge">
<title>in_section&#45;&gt;in_field_layout</title>
<path fill="none" stroke="black" d="M513.78,-145.7C516.67,-146.31 519.54,-146.89 522.35,-147.4 575.29,-157.07 636.27,-162.76 680.4,-165.92"/>
<polygon fill="black" stroke="black" points="514.6,-142.3 504.08,-143.48 513.04,-149.12 514.6,-142.3"/>
<polygon fill="black" stroke="black" points="680.09,-169.41 690.3,-166.6 680.57,-162.42 680.09,-169.41"/>
<text text-anchor="middle" x="598.1" y="-169.32" font-family="Times,serif" font-size="14.00" fill="blue">FieldLayoutOrBraces</text>
</g>
<!-- in_section&#45;&gt;in_field_layout -->
<g id="edge10" class="edge">
<title>in_section&#45;&gt;in_field_layout</title>
<path fill="none" stroke="black" d="M515.15,-119.07C559.86,-113.65 621.85,-110.9 673.85,-126.15 680,-127.95 686.13,-130.51 692.03,-133.49"/>
<polygon fill="black" stroke="black" points="514.85,-115.58 505.39,-120.34 515.75,-122.52 514.85,-115.58"/>
<polygon fill="black" stroke="black" points="689.96,-136.35 700.41,-138.12 693.35,-130.22 689.96,-136.35"/>
<text text-anchor="middle" x="598.1" y="-130.1" font-family="Times,serif" font-size="14.00" fill="blue">FieldInlineOrBraces</text>
</g>
<!-- in_section&#45;&gt;in_field_braces -->
<g id="edge11" class="edge">
<title>in_section&#45;&gt;in_field_braces</title>
<path fill="none" stroke="black" d="M508.15,-98.93C512.87,-96.8 517.65,-94.83 522.35,-93.15 574.18,-74.63 635.93,-63.5 680.61,-57.26"/>
<polygon fill="black" stroke="black" points="506.81,-95.69 499.3,-103.17 509.84,-102.01 506.81,-95.69"/>
<polygon fill="black" stroke="black" points="680.93,-60.75 690.37,-55.94 679.99,-53.81 680.93,-60.75"/>
<text text-anchor="middle" x="598.1" y="-97.1" font-family="Times,serif" font-size="14.00" fill="blue">FieldLayoutOrBraces</text>
</g>
<!-- in_field_layout&#45;&gt;bol_field_layout -->
<g id="edge7" class="edge">
<title>in_field_layout&#45;&gt;bol_field_layout</title>
<path fill="none" stroke="black" d="M793.07,-169.4C820.55,-169.4 854.88,-169.4 883.94,-169.4"/>
<polygon fill="black" stroke="black" points="883.69,-172.9 893.69,-169.4 883.69,-165.9 883.69,-172.9"/>
<text text-anchor="middle" x="844.02" y="-173.35" font-family="Times,serif" font-size="14.00" fill="red">linebreak</text>
</g>
<!-- in_field_braces&#45;&gt;bol_field_braces -->
<g id="edge8" class="edge">
<title>in_field_braces&#45;&gt;bol_field_braces</title>
<path fill="none" stroke="black" d="M790.81,-64.75C797.42,-66.26 804.17,-67.55 810.65,-68.4 840.06,-72.26 847.99,-72.26 877.4,-68.4 880.24,-68.03 883.12,-67.57 886.03,-67.05"/>
<polygon fill="black" stroke="black" points="886.67,-70.49 895.76,-65.05 885.26,-63.63 886.67,-70.49"/>
<text text-anchor="middle" x="844.02" y="-75.25" font-family="Times,serif" font-size="14.00" fill="red">linebreak</text>
</g>
</g>
</svg>
